<svg xmlns="http://www.w3.org/2000/svg" width="1123" height="794" stroke="none" stroke-linecap="round" stroke-linejoin="round" fill="#000" fill-rule="nonzero"><path d="M487.7654 603.524s-28.6198 17.4071 19.8997 22.3854c58.4041 7.4471 89.5195 6.2133 154.1645-6.2112 12.9907 7.9543 26.7333 14.6173 41.0257 19.896-145.4431 62.1776-329.5083-3.7249-215.1153-36.0702zm-18.6162-80.8175s-31.0897 23.6202 17.4088 28.6236c63.4124 6.212 113.136 7.4465 198.9574-9.9367 8.3446 8.4651 18.5662 14.8483 29.8358 18.64-175.3175 52.2188-371.7624 4.9776-246.202-37.3005zm343.1637 141.7166s21.1268 17.4048-23.6201 31.0877c-83.3039 24.9-349.3715 32.346-423.977 0-26.1129-11.1698 23.6193-27.3411 39.5566-29.831 16.1718-3.7236 24.9004-3.7236 24.9004-3.7236-28.6258-19.8966-190.2355 41.024-82.0497 58.4069 297.1601 48.4949 542.0986-21.1287 465.0091-55.94zM501.2164 438.1437s-135.5212 32.3478-48.4922 43.5152c37.3032 4.9801 110.6434 3.7238 179.0388-1.2338 55.9393-4.979 111.9249-14.8919 111.9249-14.8919s-19.8922 8.7031-33.5719 17.4043c-137.9976 36.0701-402.8514 19.8993-326.9939-17.4043 64.6415-31.091 118.1212-27.3431 118.1212-27.3431zM743.6879 573.668c139.2546-72.1373 74.6086-141.7131 29.8358-133.035-11.1663 2.4905-16.1752 4.9816-16.1752 4.9816s3.7281-7.4465 12.4273-9.9369c88.2916-31.0885 157.9137 93.244-28.6209 141.7152 0 0 1.2334-1.2337 2.4914-3.7249zM514.9475 770.1164c134.2705 8.7017 339.4374-4.9809 344.3984-68.415 0 0-9.9369 24.8985-110.6512 43.5156-114.398 21.1279-256.1353 18.6166-339.4388 4.978 0 0 17.4055 14.8947 105.6916 19.8958zM659.3588 27.8465s77.0986 78.3303-73.3427 196.443c-120.6089 95.7368-27.3425 150.4465 0 212.6256-70.8875-63.4185-121.8469-119.3832-87.0331-171.5712 50.9595-77.1165 191.465-114.187 160.3758-237.4974zm-39.5541 356.8513c36.0652 41.026-9.9369 78.3185-9.9369 78.3185s92.0076-47.2294 49.7235-105.6857c-38.5311-55.9488-68.4107-83.3044 93.2442-176.5573 0 0-254.8787 63.4185-133.0308 203.9245z"/></svg>